<svg xmlns="http://www.w3.org/2000/svg" width="1200" height="750" viewBox="0 0 1200 750" role="img" aria-labelledby="title desc">
  <title id="title">Arbok – Tea — Water Desalination &amp; Treatment</title>
  <desc id="desc">Neutral ARBOK technology visual for Arbok – Tea in the Water Desalination &amp; Treatment sector.</desc>
  <defs>
    <linearGradient id="bg" x1="0" y1="0" x2="1" y2="1" gradientTransform="rotate(166)">
      <stop offset="0%" stop-color="#042a4d"/>
      <stop offset="56%" stop-color="#026d9a"/>
      <stop offset="100%" stop-color="#49bfda"/>
    </linearGradient>
    <radialGradient id="glow" cx="68%" cy="24%" r="64%">
      <stop offset="0%" stop-color="#ffffff" stop-opacity=".30"/>
      <stop offset="52%" stop-color="#75d8f1" stop-opacity=".10"/>
      <stop offset="100%" stop-color="#000000" stop-opacity="0"/>
    </radialGradient>
    <pattern id="grid" width="44" height="44" patternUnits="userSpaceOnUse">
      <path d="M44 0H0V44" fill="none" stroke="#ffffff" stroke-opacity=".09" stroke-width="1"/>
    </pattern>
    <filter id="shadow" x="-30%" y="-30%" width="160%" height="160%">
      <feDropShadow dx="0" dy="22" stdDeviation="22" flood-color="#001a33" flood-opacity=".28"/>
    </filter>
  </defs>
  <rect width="1200" height="750" fill="url(#bg)"/>
  <rect width="1200" height="750" fill="url(#grid)" opacity=".95"/>
  <rect width="1200" height="750" fill="url(#glow)"/>
  <g opacity=".92"><path d="M-80 190 C 160 110, 320 270, 560 190 S 940 120, 1280 200" fill="none" stroke="#ffffff" stroke-width="1.2" opacity="0.08"/><path d="M-55 266 C 160 186, 320 346, 560 266 S 940 196, 1280 276" fill="none" stroke="#ffffff" stroke-width="1.6" opacity="0.12"/><path d="M-30 342 C 160 262, 320 422, 560 342 S 940 272, 1280 352" fill="none" stroke="#ffffff" stroke-width="2.0" opacity="0.15"/><path d="M-5 418 C 160 338, 320 498, 560 418 S 940 348, 1280 428" fill="none" stroke="#ffffff" stroke-width="2.4000000000000004" opacity="0.18"/></g>
  <circle cx="878" cy="267" r="250" fill="none" stroke="#ffffff" stroke-opacity=".20" stroke-width="2"/>
  <circle cx="878" cy="267" r="152" fill="none" stroke="#ffffff" stroke-opacity=".13" stroke-width="32"/>
  <g><circle cx="562" cy="408" r="8" fill="#ffffff" opacity="0.10"/><circle cx="488" cy="174" r="3" fill="#ffffff" opacity="0.14"/><circle cx="414" cy="500" r="6" fill="#ffffff" opacity="0.17"/><circle cx="340" cy="266" r="9" fill="#ffffff" opacity="0.21"/><circle cx="266" cy="592" r="4" fill="#ffffff" opacity="0.24"/><circle cx="192" cy="358" r="7" fill="#ffffff" opacity="0.10"/><circle cx="1078" cy="124" r="2" fill="#ffffff" opacity="0.14"/><circle cx="1004" cy="450" r="5" fill="#ffffff" opacity="0.17"/><circle cx="930" cy="216" r="8" fill="#ffffff" opacity="0.21"/><circle cx="856" cy="542" r="3" fill="#ffffff" opacity="0.24"/><circle cx="782" cy="308" r="6" fill="#ffffff" opacity="0.10"/><circle cx="708" cy="634" r="9" fill="#ffffff" opacity="0.14"/><circle cx="634" cy="400" r="4" fill="#ffffff" opacity="0.17"/><circle cx="560" cy="166" r="7" fill="#ffffff" opacity="0.21"/><circle cx="486" cy="492" r="2" fill="#ffffff" opacity="0.24"/><circle cx="412" cy="258" r="5" fill="#ffffff" opacity="0.10"/><circle cx="338" cy="584" r="8" fill="#ffffff" opacity="0.14"/><circle cx="264" cy="350" r="3" fill="#ffffff" opacity="0.17"/></g>
  <g transform="translate(856 154) scale(2.25)" fill="none" stroke="#ffffff" stroke-width="6" stroke-linecap="round" stroke-linejoin="round" opacity=".72" filter="url(#shadow)">
    <path d="M42 8 C25 33 14 49 14 65 c0 22 17 39 38 39s38-17 38-39C90 49 75 32 42 8Z M31 70c8 10 25 11 36 0"/>
  </g>
  <rect x="84" y="82" width="320" height="46" rx="23" fill="#ffffff" opacity=".11" stroke="#ffffff" stroke-opacity=".22"/>
  <text x="108" y="112" fill="#d8f5ff" font-size="18" font-weight="800" letter-spacing="3" font-family="Manrope, Arial, sans-serif">WATER DESALINATION &amp; TREATMENT</text>
  <text x="84" y="430" fill="#ffffff" font-size="54" font-weight="800" font-family="Manrope, Arial, sans-serif">Arbok – Tea</text>
  <text x="86" y="664" fill="#c8e5f0" font-size="19" font-weight="800" letter-spacing="4" font-family="Manrope, Arial, sans-serif">STRATEGIC RESEARCH INSTITUTE ARBOK</text>
  <line x1="84" y1="690" x2="1116" y2="690" stroke="#ffffff" stroke-opacity=".22"/>
</svg>
