<svg xmlns="http://www.w3.org/2000/svg" width="1200" height="750" viewBox="0 0 1200 750" role="img" aria-labelledby="title desc">
  <title id="title">BISHOFREEZE (Salt Concentrate for Intensified Oil and Gas Production) — Waste Management</title>
  <desc id="desc">Neutral ARBOK technology visual for BISHOFREEZE (Salt Concentrate for Intensified Oil and Gas Production) in the Waste Management sector.</desc>
  <defs>
    <linearGradient id="bg" x1="0" y1="0" x2="1" y2="1" gradientTransform="rotate(202)">
      <stop offset="0%" stop-color="#07311f"/>
      <stop offset="56%" stop-color="#0d6c4f"/>
      <stop offset="100%" stop-color="#44b88d"/>
    </linearGradient>
    <radialGradient id="glow" cx="68%" cy="24%" r="64%">
      <stop offset="0%" stop-color="#ffffff" stop-opacity=".30"/>
      <stop offset="52%" stop-color="#75d8f1" stop-opacity=".10"/>
      <stop offset="100%" stop-color="#000000" stop-opacity="0"/>
    </radialGradient>
    <pattern id="grid" width="44" height="44" patternUnits="userSpaceOnUse">
      <path d="M44 0H0V44" fill="none" stroke="#ffffff" stroke-opacity=".09" stroke-width="1"/>
    </pattern>
    <filter id="shadow" x="-30%" y="-30%" width="160%" height="160%">
      <feDropShadow dx="0" dy="22" stdDeviation="22" flood-color="#001a33" flood-opacity=".28"/>
    </filter>
  </defs>
  <rect width="1200" height="750" fill="url(#bg)"/>
  <rect width="1200" height="750" fill="url(#grid)" opacity=".95"/>
  <rect width="1200" height="750" fill="url(#glow)"/>
  <g opacity=".92"><path d="M-80 178 C 160 98, 320 258, 560 178 S 940 108, 1280 188" fill="none" stroke="#ffffff" stroke-width="1.2" opacity="0.08"/><path d="M-55 254 C 160 174, 320 334, 560 254 S 940 184, 1280 264" fill="none" stroke="#ffffff" stroke-width="1.6" opacity="0.12"/><path d="M-30 330 C 160 250, 320 410, 560 330 S 940 260, 1280 340" fill="none" stroke="#ffffff" stroke-width="2.0" opacity="0.15"/><path d="M-5 406 C 160 326, 320 486, 560 406 S 940 336, 1280 416" fill="none" stroke="#ffffff" stroke-width="2.4000000000000004" opacity="0.18"/></g>
  <circle cx="878" cy="267" r="250" fill="none" stroke="#ffffff" stroke-opacity=".20" stroke-width="2"/>
  <circle cx="878" cy="267" r="152" fill="none" stroke="#ffffff" stroke-opacity=".13" stroke-width="32"/>
  <g><circle cx="814" cy="156" r="4" fill="#ffffff" opacity="0.10"/><circle cx="776" cy="118" r="7" fill="#ffffff" opacity="0.14"/><circle cx="738" cy="640" r="2" fill="#ffffff" opacity="0.17"/><circle cx="700" cy="602" r="5" fill="#ffffff" opacity="0.21"/><circle cx="662" cy="564" r="8" fill="#ffffff" opacity="0.24"/><circle cx="624" cy="526" r="3" fill="#ffffff" opacity="0.10"/><circle cx="586" cy="488" r="6" fill="#ffffff" opacity="0.14"/><circle cx="548" cy="450" r="9" fill="#ffffff" opacity="0.17"/><circle cx="510" cy="412" r="4" fill="#ffffff" opacity="0.21"/><circle cx="472" cy="374" r="7" fill="#ffffff" opacity="0.24"/><circle cx="434" cy="336" r="2" fill="#ffffff" opacity="0.10"/><circle cx="396" cy="298" r="5" fill="#ffffff" opacity="0.14"/><circle cx="358" cy="260" r="8" fill="#ffffff" opacity="0.17"/><circle cx="320" cy="222" r="3" fill="#ffffff" opacity="0.21"/><circle cx="282" cy="184" r="6" fill="#ffffff" opacity="0.24"/><circle cx="244" cy="146" r="9" fill="#ffffff" opacity="0.10"/><circle cx="206" cy="108" r="4" fill="#ffffff" opacity="0.14"/><circle cx="168" cy="630" r="7" fill="#ffffff" opacity="0.17"/></g>
  <g transform="translate(856 154) scale(2.25)" fill="none" stroke="#ffffff" stroke-width="6" stroke-linecap="round" stroke-linejoin="round" opacity=".72" filter="url(#shadow)">
    <path d="M24 30h56M31 30l5 58h32l5-58M39 22h26l4 8H35zM44 42v34M60 42v34"/>
  </g>
  <rect x="84" y="82" width="320" height="46" rx="23" fill="#ffffff" opacity=".11" stroke="#ffffff" stroke-opacity=".22"/>
  <text x="108" y="112" fill="#d8f5ff" font-size="18" font-weight="800" letter-spacing="3" font-family="Manrope, Arial, sans-serif">WASTE MANAGEMENT</text>
  <text x="84" y="430" fill="#ffffff" font-size="48" font-weight="800" font-family="Manrope, Arial, sans-serif">BISHOFREEZE (Salt</text>
<text x="84" y="490" fill="#ffffff" font-size="48" font-weight="800" font-family="Manrope, Arial, sans-serif">Concentrate for</text>
<text x="84" y="550" fill="#ffffff" font-size="48" font-weight="800" font-family="Manrope, Arial, sans-serif">Intensified Oil and Gas</text>
<text x="84" y="610" fill="#ffffff" font-size="48" font-weight="800" font-family="Manrope, Arial, sans-serif">Production)</text>
  <text x="86" y="664" fill="#c8e5f0" font-size="19" font-weight="800" letter-spacing="4" font-family="Manrope, Arial, sans-serif">STRATEGIC RESEARCH INSTITUTE ARBOK</text>
  <line x1="84" y1="690" x2="1116" y2="690" stroke="#ffffff" stroke-opacity=".22"/>
</svg>
